<svg width="156" height="41" viewBox="0 0 156 41" fill="none" xmlns="http://www.w3.org/2000/svg">
<path d="M9.9987 19.9999L19.9987 9.99992L29.9987 19.9999L19.9987 29.9999L9.9987 19.9999Z" fill="#CAFF33"/>
<path d="M36.6654 13.3333L29.9987 19.9999V9.99992H19.9987L26.6654 3.33325H36.6654V13.3333Z" fill="#CAFF33"/>
<path d="M36.6654 26.6666L29.9987 19.9999V29.9999H19.9987L26.6654 36.6666H36.6654V26.6666Z" fill="#CAFF33"/>
<path d="M3.33203 26.6666L9.9987 19.9999V29.9999H19.9987L13.332 36.6666H3.33203L3.33203 26.6666Z" fill="#CAFF33"/>
<path d="M3.33203 13.3333L9.9987 19.9999V9.99992H19.9987L13.332 3.33325H3.33203L3.33203 13.3333Z" fill="#CAFF33"/>
<path d="M59.3546 11.3333L53.2095 22.1841V29.3323H50.3132V22.1841L44.168 11.3333H47.4672L51.7739 19.3043L56.0554 11.3333H59.3546Z" fill="white"/>
<path d="M64.5093 29.6666C62.6624 29.6666 61.0926 29.0152 59.7997 27.7124C58.5069 26.4096 57.8605 24.8068 57.8605 22.9041C57.8605 21.0013 58.5069 19.3985 59.7997 18.0958C61.0926 16.793 62.6624 16.1416 64.5093 16.1416C66.3731 16.1416 67.9429 16.793 69.219 18.0958C70.5118 19.3985 71.1582 21.0013 71.1582 22.9041C71.1582 24.8068 70.5118 26.4096 69.219 27.7124C67.9429 29.0152 66.3731 29.6666 64.5093 29.6666ZM61.7138 25.8096C62.4693 26.581 63.4012 26.9667 64.5093 26.9667C65.6175 26.9667 66.5494 26.581 67.3049 25.8096C68.0605 25.0383 68.4382 24.0697 68.4382 22.9041C68.4382 21.7384 68.0605 20.7699 67.3049 19.9985C66.5494 19.2271 65.6175 18.8414 64.5093 18.8414C63.4012 18.8414 62.4693 19.2271 61.7138 19.9985C60.9582 20.7699 60.5805 21.7384 60.5805 22.9041C60.5805 24.0697 60.9582 25.0383 61.7138 25.8096Z" fill="white"/>
<path d="M82.1051 16.4758H84.8251V29.3323H82.1051V27.6867C81.2824 29.0066 79.9812 29.6666 78.2014 29.6666C76.7575 29.6666 75.5906 29.1952 74.7007 28.2524C73.8108 27.3096 73.3659 26.0153 73.3659 24.3697V16.4758H76.0859V24.0869C76.0859 25.0468 76.3377 25.7839 76.8414 26.2982C77.3451 26.8124 78.0335 27.0696 78.9066 27.0696C79.8637 27.0696 80.636 26.7696 81.2237 26.1696C81.8113 25.5525 82.1051 24.6183 82.1051 23.3669V16.4758Z" fill="white"/>
<path d="M90.7258 18.6357C91.4142 17.0415 92.707 16.2444 94.6043 16.2444V19.2528C93.5633 19.1843 92.6566 19.4414 91.8843 20.0242C91.1119 20.5899 90.7258 21.5327 90.7258 22.8527V29.3323H88.0058V16.4758H90.7258V18.6357Z" fill="white"/>
<path d="M107.167 19.9985C107.939 20.4099 108.543 20.9756 108.98 21.6956C109.416 22.4155 109.635 23.2469 109.635 24.1897C109.635 25.6639 109.123 26.8896 108.098 27.8667C107.074 28.8438 105.823 29.3323 104.346 29.3323H96.7903V11.3333H103.792C105.236 11.3333 106.453 11.8132 107.444 12.7732C108.451 13.716 108.955 14.8988 108.955 16.3216C108.955 17.8815 108.359 19.1071 107.167 19.9985ZM103.792 14.1103H99.6866V18.8414H103.792C104.43 18.8414 104.967 18.6186 105.404 18.1729C105.84 17.7101 106.058 17.1444 106.058 16.4758C106.058 15.8073 105.84 15.2502 105.404 14.8045C104.967 14.3417 104.43 14.1103 103.792 14.1103ZM104.346 26.5553C105.017 26.5553 105.58 26.3153 106.033 25.8354C106.503 25.3382 106.738 24.7383 106.738 24.0355C106.738 23.3326 106.503 22.7412 106.033 22.2613C105.58 21.7641 105.017 21.5156 104.346 21.5156H99.6866V26.5553H104.346Z" fill="white"/>
<path d="M122.082 16.4758H124.802V29.3323H122.082V27.481C121.058 28.9381 119.589 29.6666 117.675 29.6666C115.945 29.6666 114.468 29.0152 113.242 27.7124C112.016 26.3925 111.404 24.7897 111.404 22.9041C111.404 21.0013 112.016 19.3985 113.242 18.0958C114.468 16.793 115.945 16.1416 117.675 16.1416C119.589 16.1416 121.058 16.8615 122.082 18.3015V16.4758ZM115.257 25.8611C116.012 26.6325 116.961 27.0182 118.103 27.0182C119.245 27.0182 120.193 26.6325 120.949 25.8611C121.704 25.0725 122.082 24.0869 122.082 22.9041C122.082 21.7213 121.704 20.7442 120.949 19.9728C120.193 19.1843 119.245 18.79 118.103 18.79C116.961 18.79 116.012 19.1843 115.257 19.9728C114.501 20.7442 114.124 21.7213 114.124 22.9041C114.124 24.0869 114.501 25.0725 115.257 25.8611Z" fill="white"/>
<path d="M134.596 16.1416C136.04 16.1416 137.207 16.613 138.097 17.5558C138.987 18.4986 139.432 19.7928 139.432 21.4384V29.3323H136.712V21.7213C136.712 20.7613 136.46 20.0242 135.956 19.51C135.453 18.9957 134.764 18.7386 133.891 18.7386C132.934 18.7386 132.162 19.0471 131.574 19.6642C130.986 20.2642 130.693 21.1899 130.693 22.4412V29.3323H127.973V16.4758H130.693V18.1215C131.515 16.8015 132.816 16.1416 134.596 16.1416Z" fill="white"/>
<path d="M155.835 29.3323H152.384L145.433 20.7699V29.3323H142.537V11.3333H145.433V19.4071L152.132 11.3333H155.583L148.455 20.1014L155.835 29.3323Z" fill="white"/>
</svg>
